<svg width="25" height="25" viewBox="0 0 25 25" fill="none" xmlns="http://www.w3.org/2000/svg">
<path d="M16.6667 17.7084V14.5834H9.375V10.4167H16.6667V7.29171L21.875 12.5L16.6667 17.7084ZM14.5833 2.08337C15.1359 2.08337 15.6658 2.30287 16.0565 2.69357C16.4472 3.08427 16.6667 3.61417 16.6667 4.16671V6.25004H14.5833V4.16671H5.20833V20.8334H14.5833V18.75H16.6667V20.8334C16.6667 21.3859 16.4472 21.9158 16.0565 22.3065C15.6658 22.6972 15.1359 22.9167 14.5833 22.9167H5.20833C4.6558 22.9167 4.12589 22.6972 3.73519 22.3065C3.34449 21.9158 3.125 21.3859 3.125 20.8334V4.16671C3.125 3.61417 3.34449 3.08427 3.73519 2.69357C4.12589 2.30287 4.6558 2.08337 5.20833 2.08337H14.5833Z" fill="#828282"/>
</svg>
