<svg width="50" height="50" viewBox="0 0 50 50" fill="none" xmlns="http://www.w3.org/2000/svg">
<path d="M25 16.6666H8.33329C7.22822 16.6666 6.16842 17.1056 5.38701 17.887C4.60561 18.6684 4.16663 19.7282 4.16663 20.8333V29.1666C4.16663 30.2717 4.60561 31.3315 5.38701 32.1129C6.16842 32.8943 7.22822 33.3333 8.33329 33.3333H10.4166V41.6666C10.4166 42.2192 10.6361 42.7491 11.0268 43.1398C11.4175 43.5305 11.9474 43.75 12.5 43.75H16.6666C17.2192 43.75 17.7491 43.5305 18.1398 43.1398C18.5305 42.7491 18.75 42.2192 18.75 41.6666V33.3333H25L35.4166 41.6666V8.33331L25 16.6666ZM44.7916 25C44.7916 28.5625 42.7916 31.7916 39.5833 33.3333V16.6666C42.7708 18.2291 44.7916 21.4583 44.7916 25Z" fill="white"/>
</svg>
