<svg width="25" height="25" viewBox="0 0 25 25" fill="none" xmlns="http://www.w3.org/2000/svg">
<path d="M12.5 17.7084C11.3438 17.7084 10.4167 16.7709 10.4167 15.625C10.4167 14.4688 11.3438 13.5417 12.5 13.5417C13.0525 13.5417 13.5824 13.7612 13.9731 14.1519C14.3638 14.5426 14.5833 15.0725 14.5833 15.625C14.5833 16.1776 14.3638 16.7075 13.9731 17.0982C13.5824 17.4889 13.0525 17.7084 12.5 17.7084ZM18.75 20.8334V10.4167H6.25V20.8334H18.75ZM18.75 8.33335C19.3025 8.33335 19.8324 8.55285 20.2231 8.94355C20.6138 9.33425 20.8333 9.86415 20.8333 10.4167V20.8334C20.8333 21.3859 20.6138 21.9158 20.2231 22.3065C19.8324 22.6972 19.3025 22.9167 18.75 22.9167H6.25C5.09375 22.9167 4.16667 21.9792 4.16667 20.8334V10.4167C4.16667 9.26044 5.09375 8.33335 6.25 8.33335H7.29167V6.25002C7.29167 4.86868 7.8404 3.54392 8.81716 2.56717C9.79391 1.59042 11.1187 1.04169 12.5 1.04169C13.184 1.04169 13.8612 1.1764 14.4931 1.43815C15.1251 1.69989 15.6992 2.08353 16.1829 2.56717C16.6665 3.05081 17.0501 3.62497 17.3119 4.25688C17.5736 4.88878 17.7083 5.56605 17.7083 6.25002V8.33335H18.75ZM12.5 3.12502C11.6712 3.12502 10.8763 3.45426 10.2903 4.04031C9.70424 4.62636 9.375 5.42122 9.375 6.25002V8.33335H15.625V6.25002C15.625 5.42122 15.2958 4.62636 14.7097 4.04031C14.1237 3.45426 13.3288 3.12502 12.5 3.12502Z" fill="#828282"/>
</svg>
