<svg width="25" height="25" viewBox="0 0 25 25" fill="none" xmlns="http://www.w3.org/2000/svg">
<path d="M12.4999 2.08331C18.2291 2.08331 22.9166 6.77081 22.9166 12.5C22.9166 18.2291 18.2291 22.9166 12.4999 22.9166C6.77075 22.9166 2.08325 18.2291 2.08325 12.5C2.08325 6.77081 6.77075 2.08331 12.4999 2.08331ZM12.4999 4.16665C10.5208 4.16665 8.74992 4.79165 7.39575 5.93748L19.0624 17.6041C20.1041 16.1458 20.8333 14.375 20.8333 12.5C20.8333 7.91665 17.0833 4.16665 12.4999 4.16665ZM17.6041 19.0625L5.93742 7.39581C4.79159 8.74998 4.16659 10.5208 4.16659 12.5C4.16659 17.0833 7.91659 20.8333 12.4999 20.8333C14.4791 20.8333 16.2499 20.2083 17.6041 19.0625Z" fill="#828282"/>
</svg>
